<mxfile host="app.diagrams.net" modified="2023-12-04T07:23:42.160Z" agent="Mozilla/5.0 (Windows NT 10.0; Win64; x64) AppleWebKit/537.36 (KHTML, like Gecko) Chrome/119.0.0.0 Safari/537.36" etag="WDwLgvqyDC3WgG2BMJgL" version="22.1.5" type="device">
  <diagram name="Page-1" id="yQESkLhXEzzQQhn5hz1w">
    <mxGraphModel dx="1615" dy="900" grid="1" gridSize="10" guides="1" tooltips="1" connect="1" arrows="1" fold="1" page="1" pageScale="1" pageWidth="850" pageHeight="1100" math="0" shadow="0">
      <root>
        <mxCell id="0" />
        <mxCell id="1" parent="0" />
        <mxCell id="Td_hASd5y9tShkf-4XBK-12" style="edgeStyle=orthogonalEdgeStyle;rounded=0;orthogonalLoop=1;jettySize=auto;html=1;exitX=0.5;exitY=1;exitDx=0;exitDy=0;entryX=0.5;entryY=0;entryDx=0;entryDy=0;" edge="1" parent="1" source="Td_hASd5y9tShkf-4XBK-1" target="Td_hASd5y9tShkf-4XBK-11">
          <mxGeometry relative="1" as="geometry" />
        </mxCell>
        <mxCell id="Td_hASd5y9tShkf-4XBK-1" value="" style="ellipse;html=1;shape=startState;fillColor=#000000;strokeColor=#ff0000;" vertex="1" parent="1">
          <mxGeometry x="410" y="40" width="30" height="30" as="geometry" />
        </mxCell>
        <mxCell id="Td_hASd5y9tShkf-4XBK-5" style="edgeStyle=orthogonalEdgeStyle;rounded=0;orthogonalLoop=1;jettySize=auto;html=1;exitX=0.5;exitY=1;exitDx=0;exitDy=0;entryX=0.5;entryY=0;entryDx=0;entryDy=0;" edge="1" parent="1" source="Td_hASd5y9tShkf-4XBK-3" target="Td_hASd5y9tShkf-4XBK-4">
          <mxGeometry relative="1" as="geometry" />
        </mxCell>
        <mxCell id="Td_hASd5y9tShkf-4XBK-3" value="Login" style="html=1;dashed=0;whiteSpace=wrap;" vertex="1" parent="1">
          <mxGeometry x="375" y="224" width="100" height="50" as="geometry" />
        </mxCell>
        <mxCell id="Td_hASd5y9tShkf-4XBK-8" style="edgeStyle=orthogonalEdgeStyle;rounded=0;orthogonalLoop=1;jettySize=auto;html=1;exitX=1;exitY=0.5;exitDx=0;exitDy=0;entryX=0;entryY=0.5;entryDx=0;entryDy=0;" edge="1" parent="1" source="Td_hASd5y9tShkf-4XBK-4" target="Td_hASd5y9tShkf-4XBK-7">
          <mxGeometry relative="1" as="geometry" />
        </mxCell>
        <mxCell id="Td_hASd5y9tShkf-4XBK-21" value="Tidak" style="edgeLabel;html=1;align=center;verticalAlign=middle;resizable=0;points=[];" vertex="1" connectable="0" parent="Td_hASd5y9tShkf-4XBK-8">
          <mxGeometry x="-0.2" y="-3" relative="1" as="geometry">
            <mxPoint as="offset" />
          </mxGeometry>
        </mxCell>
        <mxCell id="Td_hASd5y9tShkf-4XBK-23" style="edgeStyle=orthogonalEdgeStyle;rounded=0;orthogonalLoop=1;jettySize=auto;html=1;exitX=0.5;exitY=1;exitDx=0;exitDy=0;entryX=0.5;entryY=0;entryDx=0;entryDy=0;" edge="1" parent="1" source="Td_hASd5y9tShkf-4XBK-4" target="Td_hASd5y9tShkf-4XBK-22">
          <mxGeometry relative="1" as="geometry" />
        </mxCell>
        <mxCell id="Td_hASd5y9tShkf-4XBK-4" value="Validasi Username &amp;amp; Password" style="rhombus;whiteSpace=wrap;html=1;" vertex="1" parent="1">
          <mxGeometry x="378" y="320" width="95" height="95" as="geometry" />
        </mxCell>
        <mxCell id="Td_hASd5y9tShkf-4XBK-10" style="edgeStyle=orthogonalEdgeStyle;rounded=0;orthogonalLoop=1;jettySize=auto;html=1;exitX=1;exitY=0.5;exitDx=0;exitDy=0;entryX=0.5;entryY=1;entryDx=0;entryDy=0;" edge="1" parent="1" source="Td_hASd5y9tShkf-4XBK-7" target="Td_hASd5y9tShkf-4XBK-9">
          <mxGeometry relative="1" as="geometry" />
        </mxCell>
        <mxCell id="Td_hASd5y9tShkf-4XBK-7" value="Login Gagal" style="html=1;dashed=0;whiteSpace=wrap;" vertex="1" parent="1">
          <mxGeometry x="570" y="342" width="100" height="50" as="geometry" />
        </mxCell>
        <mxCell id="Td_hASd5y9tShkf-4XBK-18" style="edgeStyle=orthogonalEdgeStyle;rounded=0;orthogonalLoop=1;jettySize=auto;html=1;exitX=0.5;exitY=0;exitDx=0;exitDy=0;entryX=0.5;entryY=1;entryDx=0;entryDy=0;" edge="1" parent="1" source="Td_hASd5y9tShkf-4XBK-9" target="Td_hASd5y9tShkf-4XBK-17">
          <mxGeometry relative="1" as="geometry" />
        </mxCell>
        <mxCell id="Td_hASd5y9tShkf-4XBK-20" value="Ya" style="edgeLabel;html=1;align=center;verticalAlign=middle;resizable=0;points=[];" vertex="1" connectable="0" parent="Td_hASd5y9tShkf-4XBK-18">
          <mxGeometry x="0.3091" y="2" relative="1" as="geometry">
            <mxPoint x="2" y="12" as="offset" />
          </mxGeometry>
        </mxCell>
        <mxCell id="Td_hASd5y9tShkf-4XBK-9" value="" style="rhombus;whiteSpace=wrap;html=1;" vertex="1" parent="1">
          <mxGeometry x="690" y="240" width="80" height="80" as="geometry" />
        </mxCell>
        <mxCell id="Td_hASd5y9tShkf-4XBK-14" style="edgeStyle=orthogonalEdgeStyle;rounded=0;orthogonalLoop=1;jettySize=auto;html=1;exitX=0.5;exitY=1;exitDx=0;exitDy=0;entryX=0.5;entryY=0;entryDx=0;entryDy=0;" edge="1" parent="1" source="Td_hASd5y9tShkf-4XBK-11" target="Td_hASd5y9tShkf-4XBK-3">
          <mxGeometry relative="1" as="geometry" />
        </mxCell>
        <mxCell id="Td_hASd5y9tShkf-4XBK-11" value="Memasukkan Username &amp;amp; Password" style="html=1;dashed=0;whiteSpace=wrap;" vertex="1" parent="1">
          <mxGeometry x="375" y="126" width="100" height="50" as="geometry" />
        </mxCell>
        <mxCell id="Td_hASd5y9tShkf-4XBK-19" style="edgeStyle=orthogonalEdgeStyle;rounded=0;orthogonalLoop=1;jettySize=auto;html=1;exitX=0;exitY=0.5;exitDx=0;exitDy=0;entryX=1;entryY=0.5;entryDx=0;entryDy=0;" edge="1" parent="1" source="Td_hASd5y9tShkf-4XBK-17" target="Td_hASd5y9tShkf-4XBK-11">
          <mxGeometry relative="1" as="geometry" />
        </mxCell>
        <mxCell id="Td_hASd5y9tShkf-4XBK-17" value="Melakukan Pendaftaran Akun" style="html=1;dashed=0;whiteSpace=wrap;" vertex="1" parent="1">
          <mxGeometry x="680" y="126" width="100" height="50" as="geometry" />
        </mxCell>
        <mxCell id="Td_hASd5y9tShkf-4XBK-22" value="Halaman Utama" style="html=1;dashed=0;whiteSpace=wrap;" vertex="1" parent="1">
          <mxGeometry x="375" y="470" width="100" height="50" as="geometry" />
        </mxCell>
        <mxCell id="Td_hASd5y9tShkf-4XBK-26" style="edgeStyle=orthogonalEdgeStyle;rounded=0;orthogonalLoop=1;jettySize=auto;html=1;exitX=0.5;exitY=1;exitDx=0;exitDy=0;entryX=0.5;entryY=0;entryDx=0;entryDy=0;" edge="1" parent="1" source="Td_hASd5y9tShkf-4XBK-22" target="Td_hASd5y9tShkf-4XBK-29">
          <mxGeometry relative="1" as="geometry">
            <mxPoint x="425" y="600" as="targetPoint" />
          </mxGeometry>
        </mxCell>
        <mxCell id="Td_hASd5y9tShkf-4XBK-29" value="Validasi Data Pasien Lama/Baru" style="rhombus;whiteSpace=wrap;html=1;" vertex="1" parent="1">
          <mxGeometry x="370" y="550" width="110" height="110" as="geometry" />
        </mxCell>
        <mxCell id="Td_hASd5y9tShkf-4XBK-66" value="" style="shape=line;html=1;strokeWidth=6;strokeColor=#ff0000;" vertex="1" parent="1">
          <mxGeometry x="130" y="720" width="590" height="10" as="geometry" />
        </mxCell>
        <mxCell id="Td_hASd5y9tShkf-4XBK-69" style="edgeStyle=orthogonalEdgeStyle;rounded=0;orthogonalLoop=1;jettySize=auto;html=1;exitX=0.5;exitY=1;exitDx=0;exitDy=0;entryX=0.501;entryY=0.188;entryDx=0;entryDy=0;entryPerimeter=0;" edge="1" parent="1" source="Td_hASd5y9tShkf-4XBK-29" target="Td_hASd5y9tShkf-4XBK-66">
          <mxGeometry relative="1" as="geometry" />
        </mxCell>
        <mxCell id="Td_hASd5y9tShkf-4XBK-81" style="edgeStyle=orthogonalEdgeStyle;rounded=0;orthogonalLoop=1;jettySize=auto;html=1;exitX=0.5;exitY=1;exitDx=0;exitDy=0;entryX=0.5;entryY=0;entryDx=0;entryDy=0;" edge="1" parent="1" source="Td_hASd5y9tShkf-4XBK-70" target="Td_hASd5y9tShkf-4XBK-71">
          <mxGeometry relative="1" as="geometry" />
        </mxCell>
        <mxCell id="Td_hASd5y9tShkf-4XBK-70" value="List Antrian Pasien" style="html=1;dashed=0;whiteSpace=wrap;" vertex="1" parent="1">
          <mxGeometry x="295" y="790" width="100" height="50" as="geometry" />
        </mxCell>
        <mxCell id="Td_hASd5y9tShkf-4XBK-82" style="edgeStyle=orthogonalEdgeStyle;rounded=0;orthogonalLoop=1;jettySize=auto;html=1;exitX=0.5;exitY=1;exitDx=0;exitDy=0;entryX=0.5;entryY=0;entryDx=0;entryDy=0;" edge="1" parent="1" source="Td_hASd5y9tShkf-4XBK-71" target="Td_hASd5y9tShkf-4XBK-77">
          <mxGeometry relative="1" as="geometry" />
        </mxCell>
        <mxCell id="Td_hASd5y9tShkf-4XBK-71" value="Informasi Antrian" style="html=1;dashed=0;whiteSpace=wrap;" vertex="1" parent="1">
          <mxGeometry x="295" y="890" width="100" height="50" as="geometry" />
        </mxCell>
        <mxCell id="Td_hASd5y9tShkf-4XBK-80" style="edgeStyle=orthogonalEdgeStyle;rounded=0;orthogonalLoop=1;jettySize=auto;html=1;exitX=0.5;exitY=1;exitDx=0;exitDy=0;" edge="1" parent="1" source="Td_hASd5y9tShkf-4XBK-73" target="Td_hASd5y9tShkf-4XBK-74">
          <mxGeometry relative="1" as="geometry" />
        </mxCell>
        <mxCell id="Td_hASd5y9tShkf-4XBK-73" value="Merubah Jadwal" style="html=1;dashed=0;whiteSpace=wrap;" vertex="1" parent="1">
          <mxGeometry x="455" y="790" width="100" height="50" as="geometry" />
        </mxCell>
        <mxCell id="Td_hASd5y9tShkf-4XBK-84" style="edgeStyle=orthogonalEdgeStyle;rounded=0;orthogonalLoop=1;jettySize=auto;html=1;exitX=0.5;exitY=1;exitDx=0;exitDy=0;entryX=0.5;entryY=0;entryDx=0;entryDy=0;" edge="1" parent="1" source="Td_hASd5y9tShkf-4XBK-74" target="Td_hASd5y9tShkf-4XBK-83">
          <mxGeometry relative="1" as="geometry" />
        </mxCell>
        <mxCell id="Td_hASd5y9tShkf-4XBK-74" value="Simpan" style="html=1;dashed=0;whiteSpace=wrap;" vertex="1" parent="1">
          <mxGeometry x="455" y="890" width="100" height="50" as="geometry" />
        </mxCell>
        <mxCell id="Td_hASd5y9tShkf-4XBK-85" style="edgeStyle=orthogonalEdgeStyle;rounded=0;orthogonalLoop=1;jettySize=auto;html=1;exitX=0.5;exitY=1;exitDx=0;exitDy=0;entryX=0.5;entryY=0;entryDx=0;entryDy=0;" edge="1" parent="1" source="Td_hASd5y9tShkf-4XBK-77" target="Td_hASd5y9tShkf-4XBK-83">
          <mxGeometry relative="1" as="geometry">
            <mxPoint x="420" y="1100" as="targetPoint" />
          </mxGeometry>
        </mxCell>
        <mxCell id="Td_hASd5y9tShkf-4XBK-77" value="Melihat Detail Data Pasien" style="html=1;dashed=0;whiteSpace=wrap;" vertex="1" parent="1">
          <mxGeometry x="295" y="990" width="100" height="50" as="geometry" />
        </mxCell>
        <mxCell id="Td_hASd5y9tShkf-4XBK-78" value="" style="endArrow=classic;html=1;rounded=0;entryX=0.5;entryY=0;entryDx=0;entryDy=0;exitX=0.636;exitY=0.819;exitDx=0;exitDy=0;exitPerimeter=0;" edge="1" parent="1" source="Td_hASd5y9tShkf-4XBK-66" target="Td_hASd5y9tShkf-4XBK-73">
          <mxGeometry width="50" height="50" relative="1" as="geometry">
            <mxPoint x="505" y="740" as="sourcePoint" />
            <mxPoint x="660" y="810" as="targetPoint" />
          </mxGeometry>
        </mxCell>
        <mxCell id="Td_hASd5y9tShkf-4XBK-79" value="" style="endArrow=classic;html=1;rounded=0;entryX=0.5;entryY=0;entryDx=0;entryDy=0;exitX=0.366;exitY=0.907;exitDx=0;exitDy=0;exitPerimeter=0;" edge="1" parent="1" source="Td_hASd5y9tShkf-4XBK-66" target="Td_hASd5y9tShkf-4XBK-70">
          <mxGeometry width="50" height="50" relative="1" as="geometry">
            <mxPoint x="320" y="810" as="sourcePoint" />
            <mxPoint x="370" y="760" as="targetPoint" />
          </mxGeometry>
        </mxCell>
        <mxCell id="Td_hASd5y9tShkf-4XBK-83" value="" style="ellipse;html=1;shape=endState;fillColor=#000000;strokeColor=#ff0000;" vertex="1" parent="1">
          <mxGeometry x="410" y="1100" width="30" height="30" as="geometry" />
        </mxCell>
      </root>
    </mxGraphModel>
  </diagram>
</mxfile>
